<svg width="355" height="389" viewBox="0 0 355 389" fill="none" xmlns="http://www.w3.org/2000/svg">
<path d="M136.913 82.6271C136.913 85.6227 136.601 88.5476 136.006 91.37C131.974 110.588 114.909 117.146 94.4663 117.146C71.0277 117.146 52.0233 106.041 52.0233 82.6271C52.0233 59.2127 71.0277 40.2348 94.4663 40.2348C110.581 40.2348 124.6 49.2022 131.789 62.417C135.056 68.4241 136.913 75.3091 136.913 82.6271Z" fill="#33CC9A"/>
<mask id="mask0" mask-type="alpha" maskUnits="userSpaceOnUse" x="52" y="40" width="85" height="78">
<path d="M136.913 82.6271C136.913 85.6227 136.601 88.5476 136.006 91.37C131.974 110.588 114.909 117.146 94.4663 117.146C71.0277 117.146 52.0233 106.041 52.0233 82.6271C52.0233 59.2127 71.0277 40.2348 94.4663 40.2348C110.581 40.2348 124.6 49.2022 131.789 62.417C135.056 68.4241 136.913 75.3091 136.913 82.6271Z" fill="white"/>
</mask>
<g mask="url(#mask0)">
</g>
<path fill-rule="evenodd" clip-rule="evenodd" d="M101.745 110.832C101.745 110.832 96.6483 110.983 94.4763 109.797L101.474 114.186L101.745 110.832Z" fill="#CF3E83"/>
<path d="M100.041 78.6531C105.004 82.9175 112.35 86.8829 120.974 89.579C120.425 95.4148 118.602 105.473 113.103 109.127C110.505 110.852 105.775 111.065 101.745 110.832L100.82 122.265L88.842 117.579C88.842 117.579 91.8318 103.684 90.2309 101.131C88.081 97.6906 82.3288 96.5821 82.3221 91.828C82.3198 90.4199 83.1439 87.982 86.1869 87.9773C90.2715 87.9714 89.6894 92.859 89.6894 92.859C93.4468 94.3189 97.2767 84.3187 100.041 78.6531V78.6531Z" fill="#FD9BAA"/>
<path fill-rule="evenodd" clip-rule="evenodd" d="M112.823 92.8499L115.739 99.9119L112.356 99.8442L112.823 92.8499Z" fill="#2437A8"/>
<path fill-rule="evenodd" clip-rule="evenodd" d="M109.718 93.1562C109.645 94.5671 108.815 95.6661 107.862 95.6114C106.91 95.5567 106.197 94.3687 106.27 92.9578C106.343 91.547 107.173 90.4475 108.125 90.5022C109.077 90.5573 109.791 91.7454 109.718 93.1562Z" fill="#1D1D23"/>
<path fill-rule="evenodd" clip-rule="evenodd" d="M118.659 92.9308C118.586 94.3416 117.756 95.4407 116.804 95.386C115.851 95.3313 115.138 94.1432 115.211 92.7324C115.284 91.3215 116.115 90.2221 117.067 90.2772C118.019 90.3319 118.732 91.5199 118.659 92.9308Z" fill="#1D1D23"/>
<path d="M111.526 103.227C111.526 103.227 109.321 103.938 107.112 101.484" stroke="#24242B" stroke-width="3"/>
<path opacity="0.399019" fill-rule="evenodd" clip-rule="evenodd" d="M101.736 110.832C101.736 110.832 96.6399 110.982 94.4679 109.798L101.465 114.186L101.736 110.832Z" fill="black"/>
<path fill-rule="evenodd" clip-rule="evenodd" d="M107.734 123.763C105.363 119.757 102.189 117.516 102.189 117.516L87.6825 116.817C87.6825 116.817 88.9181 119.998 90.2261 124.088C92.8119 132.173 98.946 133.99 104.291 133.981C109.283 133.973 110.979 129.244 107.734 123.763ZM143.472 147.253C143.211 144.707 143.109 141.661 143.92 140.57C145.406 138.568 152.754 132.515 152.754 132.515L153.146 137.566L154.885 131.637C154.885 131.637 156.812 132.207 158.676 133.181C160.02 133.884 161.309 134.836 162.118 135.434L162.118 135.434C162.31 135.577 162.476 135.699 162.608 135.793C163.596 136.494 160.724 147.287 158.676 149.23C157.27 150.563 153.125 151.596 150.666 152.113C145.967 159.692 133.446 178.626 126.529 177.064C119.343 175.441 112.675 150.351 112.675 150.351L124.796 144.453L130.074 160.7L143.472 147.253ZM61.1061 202.239L64.0563 209.775C64.0563 209.775 64.5044 211.715 64.7549 214.008L64.7881 214.314C65.0166 216.431 65.1699 217.851 66.6212 221.136C67.6806 223.534 64.2523 222.818 63.2801 221.478C62.9214 220.984 62.6261 219.941 62.3191 218.858C61.7684 216.913 61.1802 214.836 60.1205 215.555C58.4702 216.676 57.973 222.374 58.3421 227.755C58.4 228.6 57.8125 229.29 57.3923 229.534C56.7109 229.928 55.7165 226.598 55.7165 226.598C55.7165 226.598 55.3588 227.768 54.2736 227.279C53.8895 227.106 52.745 224.84 52.745 224.84C52.745 224.84 51.8588 223.724 51.3927 222.477C50.57 220.276 49.8982 216.191 50.0566 214.99C50.4307 212.161 51.2724 207.386 52.3788 204.741C51.7256 197.944 49.2216 170.654 50.6029 165.47C52.1839 159.539 55.2816 151.501 55.2816 151.501L67.1683 158.483L62.0726 169.349L61.1061 202.239Z" fill="#FD9BAA"/>
<path fill-rule="evenodd" clip-rule="evenodd" d="M158.904 133.334C157.809 132.707 156.768 132.238 156.257 132.357C155.364 132.565 156.999 134.905 158.191 136.446L158.178 136.505C156.253 137.278 153.731 138.425 153.325 139.265C153.042 139.851 154.148 140.043 155.518 140.069C154.257 140.673 153.157 141.326 152.901 141.856C152.573 142.535 154.108 142.685 155.759 142.66C154.301 143.325 152.935 144.08 152.646 144.679C152.277 145.443 154.266 145.537 156.125 145.467L155.647 147.553C155.501 148.193 154.917 148.637 154.261 148.608L147.126 148.297C146.278 148.26 145.67 147.463 145.859 146.636L150.914 124.569C151.061 123.929 151.644 123.485 152.3 123.514L159.435 123.825C160.284 123.862 160.891 124.659 160.702 125.486L158.904 133.334Z" fill="#020101"/>
<path d="M160.359 134.229C158.845 133.243 156.996 132.185 156.257 132.357C155.356 132.567 157.028 134.947 158.223 136.487C156.293 137.26 153.734 138.419 153.325 139.265C153.042 139.851 154.148 140.043 155.518 140.069C154.257 140.673 153.157 141.326 152.901 141.856C152.573 142.535 154.108 142.685 155.76 142.66C154.301 143.325 152.935 144.08 152.646 144.679C152.158 145.69 155.803 145.527 157.808 145.365L157.29 147.625C157.144 148.265 156.56 148.709 155.904 148.68L148.77 148.369C147.921 148.332 147.313 147.535 147.502 146.707L152.557 124.64C152.704 124 153.287 123.557 153.943 123.585L161.078 123.896C161.927 123.934 162.534 124.731 162.345 125.558L160.359 134.229Z" fill="#F27373"/>
<path fill-rule="evenodd" clip-rule="evenodd" d="M154.397 126.509C154.231 127.232 153.804 127.746 153.443 127.655C153.083 127.565 152.925 126.906 153.091 126.183C153.258 125.459 153.685 124.946 154.045 125.036C154.406 125.126 154.563 125.786 154.397 126.509Z" fill="#020101"/>
<path fill-rule="evenodd" clip-rule="evenodd" d="M153.563 130.251C153.396 130.974 152.97 131.488 152.609 131.398C152.248 131.308 152.091 130.648 152.257 129.925C152.423 129.202 152.85 128.688 153.211 128.779C153.571 128.869 153.729 129.528 153.563 130.251Z" fill="#020101"/>
<path d="M92.4637 117.047L87.6825 116.817C87.6825 116.817 88.9181 119.998 90.2262 124.088C92.812 132.173 98.946 133.99 104.291 133.981C109.283 133.973 110.979 129.244 107.734 123.763C105.646 120.234 102.935 118.075 102.318 117.611C108.622 118.036 112.547 118.827 116.182 122.232C123.103 128.716 128.707 140.669 131.012 152.478L118.364 158.115L113.859 175.501L80.7594 174.998C80.7594 174.998 81.0491 171.813 80.3354 167.211C79.4056 161.192 76.0493 156.701 76.0493 156.701L72.7202 161.755L52.0153 149.564C58.7937 137.218 68.2486 124.488 74.5525 120.437C79.0059 117.574 83.0835 116.856 87.0677 116.817C88.8795 116.799 90.6986 116.922 92.4637 117.047Z" fill="#CEE0FD"/>
<path opacity="0.202962" d="M114.007 175.804C115.272 159.765 123.629 155.98 117.323 137.993" stroke="black" stroke-width="3"/>
<path opacity="0.202055" d="M102.189 117.516C102.189 117.516 105.363 119.757 107.734 123.763C110.979 129.244 109.283 133.973 104.291 133.981C98.946 133.99 92.8119 132.173 90.2261 124.088C88.9181 119.998 87.6825 116.817 87.6825 116.817" stroke="black" stroke-width="3"/>
<path opacity="0.202962" d="M84.5505 145.473L76.8704 157.095" stroke="black" stroke-width="3"/>
<path fill-rule="evenodd" clip-rule="evenodd" d="M115.882 379.669L116.829 371.419L108.515 367.564L107.653 391.193L140.109 391.137C133.49 384.279 115.882 379.669 115.882 379.669ZM67.5613 369.165L58.3627 369.364L58.4557 379.866C58.4557 379.866 49.5809 381.404 46.5059 391.193H69.5795L68.5796 379.398L67.5613 369.165Z" fill="#0D0B6D"/>
<path fill-rule="evenodd" clip-rule="evenodd" d="M68.559 369.748L59.5861 366.599L58.3844 379.398L68.5083 379.866L68.559 369.748ZM117.045 372.82L108.324 369.358L108.056 379.342L116.97 379.669L117.045 372.82Z" fill="#FD9BAA"/>
<path d="M56.3866 371.46C56.7979 358.662 59.4543 277.821 62.1837 229.725C64.0751 196.389 78.2296 178.035 80.886 174.864H114.612C114.673 175.289 119.213 207.386 120.044 274.546C120.789 334.691 120.021 367.567 119.925 371.433L119.924 371.435L121.002 371.433L121.008 376.611L103.544 376.639L103.537 371.461L104.14 371.461L104.14 371.46L95.2713 266.21L92.6149 234.709L72.4517 371.433L72.4516 371.434L73.3237 371.433L73.0192 376.611L54.9381 376.64L55.2426 371.462L56.3865 371.46L56.3866 371.46Z" fill="#2F2F3D"/>
<path opacity="0.398065" fill-rule="evenodd" clip-rule="evenodd" d="M92.6149 234.71L96.2435 203.895L95.2701 266.209L92.6149 234.71Z" fill="#0A0A0F"/>
<path fill-rule="evenodd" clip-rule="evenodd" d="M228.697 64.367C228.697 70.2045 232.458 74.9366 237.097 74.9366C241.735 74.9366 245.495 70.2045 245.495 64.367C245.495 58.5295 241.735 53.7975 237.097 53.7975C232.458 53.7975 228.697 58.5295 228.697 64.367Z" fill="#19141E"/>
<path d="M248.573 106.239L248.925 94.0988C248.925 94.0988 234.178 95.2734 231.023 93.634C231.023 93.634 227.168 73.7623 231.766 62.758L231.86 62.3295L262.979 58.6881L264.723 76.552C265.772 73.4589 274.423 69.9516 276.684 74.3809C281.585 83.9784 264.062 90.4408 264.062 90.4408L265.841 106.384" fill="#8FA8D0"/>
<path opacity="0.398926" fill-rule="evenodd" clip-rule="evenodd" d="M248.925 94.0986L258.869 91.9657L248.972 98.6532L248.925 94.0986Z" fill="black"/>
<path fill-rule="evenodd" clip-rule="evenodd" d="M240.976 76.325L237.54 84.7287L241.658 84.7812L240.976 76.325Z" fill="#405FD3"/>
<path fill-rule="evenodd" clip-rule="evenodd" d="M244.64 76.6485C244.435 77.7802 245.187 78.8635 246.318 79.0679C247.449 79.2727 248.532 78.5211 248.736 77.3898C248.941 76.2581 248.19 75.1748 247.059 74.9699C245.927 74.7655 244.845 75.5168 244.64 76.6485Z" fill="#0D0B6D"/>
<path fill-rule="evenodd" clip-rule="evenodd" d="M233.093 76.6485C232.888 77.7802 233.64 78.8635 234.771 79.0679C235.902 79.2727 236.985 78.5211 237.19 77.3898C237.395 76.2581 236.643 75.1748 235.512 74.9699C234.381 74.7655 233.298 75.5168 233.093 76.6485Z" fill="#0D0B6D"/>
<path d="M262.413 79.601C265.363 74.5493 269.632 73.0087 271.548 72.5569C272.312 70.3472 272.895 67.7845 273.304 65.059C274.402 57.7644 269.1 51.1091 264.818 49.198C260.483 47.264 253.008 44.5839 242.068 48.2219C234.712 50.6695 230.011 44.8098 225.682 47.3124C218.286 51.5901 225.166 70.3179 243.92 65.5603C257.335 62.157 257.68 63.0107 257.795 65.4845C258.167 73.4807 259.413 78.1848 262.413 79.601Z" fill="#2F2F3D"/>
<path fill-rule="evenodd" clip-rule="evenodd" d="M246.696 85.0935C246.696 85.0935 245.374 87.4967 242.516 87.4398L246.696 85.0935Z" fill="white"/>
<path d="M246.696 85.0935C246.696 85.0935 245.374 87.4967 242.516 87.4398" stroke="#252535" stroke-width="4"/>
<path fill-rule="evenodd" clip-rule="evenodd" d="M241.974 76.749C241.974 79.38 244.106 81.5125 246.736 81.5125C249.366 81.5125 251.498 79.38 251.498 76.749C251.498 74.1181 249.366 71.9852 246.736 71.9852C244.106 71.9852 241.974 74.1181 241.974 76.749Z" stroke="#252535" stroke-width="4"/>
<path fill-rule="evenodd" clip-rule="evenodd" d="M229.982 76.749C229.982 79.38 232.114 81.5125 234.744 81.5125C237.374 81.5125 239.507 79.38 239.507 76.749C239.507 74.1181 237.374 71.9852 234.744 71.9852C232.114 71.9852 229.982 74.1181 229.982 76.749Z" stroke="#252535" stroke-width="4"/>
<path d="M239.895 76.9698H241.954" stroke="#252535" stroke-width="4"/>
<path d="M251.498 76.749H263.263" stroke="#252535" stroke-width="4"/>
<path fill-rule="evenodd" clip-rule="evenodd" d="M236.327 379.082L236.211 369.126L249.063 362.66L250.928 391.121H206.402C213.978 382.597 236.327 379.082 236.327 379.082ZM293.363 379.47L293.247 368.287L301.626 375.101L308.368 378.851L310.593 391.121H280.118C283.95 380.697 293.363 379.47 293.363 379.47Z" fill="#0D0B6D"/>
<path fill-rule="evenodd" clip-rule="evenodd" d="M293.247 368.287L306.099 364.429L308.368 378.851L293.363 379.47L293.247 368.287ZM236.211 369.126L249.063 365.268L250.099 378.463L236.327 379.081L236.211 369.126Z" fill="#E576C6"/>
<path d="M234.369 365.861L234.666 375.101H251.618L251.321 365.834C253.22 365.073 254.577 363.243 254.623 361.08L257.352 222.679L286.836 362.407C287.252 364.372 288.711 365.899 290.565 366.461L291.673 375.101H309.448L307.918 365.562C309.399 364.417 310.256 362.532 309.961 360.518L282.816 175.327L258.285 175.327L258.287 175.257H228.576L230.357 360.822C230.381 363.262 232.081 365.303 234.369 365.861Z" fill="#2F2F3D"/>
<path opacity="0.197824" fill-rule="evenodd" clip-rule="evenodd" d="M257.503 224.873L252.301 201.838L256.215 271.674L257.503 224.873Z" fill="black"/>
<path d="M276.469 175.502L273.622 175.966L304.672 364.688L307.527 364.212L276.469 175.502Z" fill="#EFEFEF"/>
<path fill-rule="evenodd" clip-rule="evenodd" d="M187.766 111.848L187.97 108.334C187.97 108.334 187.966 105.889 187.648 103.25C187.568 102.588 187.393 101.895 187.205 101.156C186.646 98.9478 185.981 96.3207 187.436 92.8303C189.377 88.1751 184.735 91.3892 183.707 93.6035C183.31 94.4594 183.194 95.7529 183.079 97.0359V97.036C182.947 98.5202 182.815 99.9903 182.251 100.752C181.361 100.271 180.77 99.6432 180.77 99.6432L170.763 86.7623C170.44 86.3292 169.845 86.1997 169.367 86.4547L168.829 86.7462C168.262 87.0538 168.082 87.7744 168.445 88.3006C169.14 89.3117 170.351 91.0171 171.618 92.7998L171.618 92.8001C173.917 96.0349 176.396 99.5236 176.29 99.5784L176.025 99.8982L164.272 87.6003C163.905 87.1914 163.289 87.1186 162.836 87.4303L162.13 87.916C161.616 88.2682 161.506 88.9726 161.89 89.4583C163.143 91.0644 166.245 94.5426 168.828 97.4382C171.063 99.9435 172.908 102.013 172.831 102.056L172.48 102.392L161.539 92.802C161.151 92.3729 160.49 92.3243 160.042 92.6846L159.507 93.1178C159.038 93.4942 158.969 94.1783 159.352 94.6398L169.686 104.282L169.388 104.748L160.417 98.4935C160.005 98.1292 159.385 98.1292 158.969 98.4895L158.72 98.7121C158.279 99.1008 158.23 99.7687 158.614 100.218C159.224 100.935 160.433 101.877 161.874 103C163.532 104.292 165.498 105.824 167.213 107.529C168.158 108.468 168.92 109.388 169.692 110.321C170.953 111.844 172.241 113.4 174.397 115.123C175.684 116.155 176.849 116.755 177.957 117.326C178.114 117.407 178.269 117.487 178.424 117.568L187.766 111.848ZM268.422 103.786C268.422 103.786 261.509 103.773 256.519 103.756C251.53 103.739 245.255 105.833 245.255 105.833C245.255 105.833 241.99 113.15 253.332 112.487C264.673 111.824 268.422 103.786 268.422 103.786ZM306.237 133.397C306.237 133.397 317.304 149.97 317.053 159.187C316.757 170.054 281.94 196.757 281.94 196.757L272.917 189.424L294.836 158.938L286.865 141.999L306.237 133.397Z" fill="#8FA9D0"/>
<path d="M275.539 176.136L270.149 183.351L286.383 197.467C286.383 197.467 316.175 175.685 317.095 158.606C317.681 147.728 308.141 132.2 308.141 132.2C308.141 132.2 296.167 113.109 282.325 106.666C279.484 105.344 272.597 104.241 268.422 103.786C267.142 103.647 267.908 104.144 267.468 104.986C267.009 105.866 265.612 107.169 264.646 108.143C262.634 110.17 258.669 111.706 256.54 112.02C254.917 112.259 251.78 112.631 250.272 112.429C248.763 112.227 247.123 111.547 246.684 111.143C246.246 110.74 245.594 110.235 245.255 109.457C244.917 108.679 244.934 108.902 244.934 108.184C244.934 107.466 244.971 107.572 245.042 107.231C245.112 106.889 245.112 106.684 245.154 106.507C245.337 105.726 245.255 105.833 245.255 105.833C237.084 108.294 232.945 109.206 229.968 112.787L207.219 128.713L191.654 108.452L171.571 121.904C171.571 121.904 189.353 154.952 202.24 158.606C212.622 161.549 223.138 152.396 226.836 148.725L222.443 170.972C221.738 174.813 225.11 176.267 228.114 176.131L275.539 176.136Z" fill="#33CC9A"/>
<path opacity="0.201242" fill-rule="evenodd" clip-rule="evenodd" d="M226.905 148.738L229.624 138.019L222.282 152.668L226.905 148.738Z" fill="black"/>
<path opacity="0.200591" d="M277.555 173.552L290.233 155.616L274.919 132.449" stroke="black" stroke-width="5"/>
</svg>
