<svg width="208" height="59" viewBox="0 0 208 59" fill="none" xmlns="http://www.w3.org/2000/svg">
<path d="M34.3315 4.26C34.8915 4.26 35.1715 4.42 35.1715 4.74C35.1715 4.86 35.1515 5 35.1115 5.16L33.7315 13.14C33.6515 13.74 33.2715 14.04 32.5915 14.04H29.0515C28.6515 14.04 28.4115 13.98 28.3315 13.86C28.2515 13.74 28.2515 13.5 28.3315 13.14L29.2915 9.06H21.3115L15.7315 40.26H20.6515C21.0515 40.22 21.2915 40.26 21.3715 40.38C21.4915 40.5 21.5315 40.74 21.4915 41.1L20.9515 44.1C20.8715 44.46 20.7715 44.7 20.6515 44.82C20.5315 44.94 20.2715 45 19.8715 45H3.31148C2.91148 45 2.65148 44.94 2.53148 44.82C2.45148 44.7 2.43148 44.46 2.47148 44.1L3.01148 41.1C3.09148 40.74 3.19148 40.5 3.31148 40.38C3.43148 40.26 3.69148 40.22 4.09148 40.26H8.95148L14.4715 9.06H6.43149L5.95149 13.08C5.87148 13.48 5.77148 13.74 5.65148 13.86C5.53148 13.98 5.27148 14.04 4.87148 14.04H1.33148C0.771485 14.04 0.491485 13.88 0.491485 13.56C0.491485 13.44 0.511485 13.3 0.551484 13.14L1.93148 5.16C2.01148 4.56 2.39148 4.26 3.07148 4.26H34.3315ZM31.2579 45C30.6979 45 30.4179 44.84 30.4179 44.52C30.4179 44.4 30.4379 44.26 30.4779 44.1L34.6179 20.16H32.0379C31.6379 20.2 31.3779 20.16 31.2579 20.04C31.1779 19.92 31.1779 19.68 31.2579 19.32L31.7979 16.2C31.8779 15.6 32.2579 15.3 32.9379 15.3H40.5579C40.9579 15.3 41.1979 15.36 41.2779 15.48C41.3979 15.6 41.4179 15.84 41.3379 16.2L40.4979 21.12C43.0179 16.8 46.3579 14.64 50.5179 14.64C53.1579 14.64 54.4779 15.02 54.4779 15.78C54.4779 15.9 54.4579 16.04 54.4179 16.2L53.0379 24.12C52.9579 24.72 52.5779 25.02 51.8979 25.02H48.4779C48.0779 25.02 47.8179 24.96 47.6979 24.84C47.6179 24.72 47.6179 24.48 47.6979 24.12L48.2379 20.94C47.6779 20.86 47.2779 20.82 47.0379 20.82C43.1579 20.82 40.7379 23.54 39.7779 28.98L37.1379 44.1C37.0979 44.46 36.9979 44.7 36.8379 44.82C36.6779 44.94 36.3979 45 35.9979 45H31.2579ZM55.2152 15.3H63.5552C63.9552 15.3 64.1952 15.36 64.2752 15.48C64.3952 15.6 64.4152 15.84 64.3352 16.2L60.2552 39.06C60.2152 39.34 60.1952 39.58 60.1952 39.78C60.1952 40.54 60.5352 40.92 61.2152 40.92C61.6952 40.92 62.2552 40.78 62.8952 40.5C63.5752 40.22 64.0352 40.34 64.2752 40.86L64.7552 41.82C65.0352 42.34 64.9352 42.8 64.4552 43.2C62.2952 44.92 60.1152 45.78 57.9152 45.78C54.8352 45.78 53.2952 44.4 53.2952 41.64C53.2952 41.16 53.3352 40.64 53.4152 40.08L56.8352 20.16H54.2552C53.8552 20.2 53.5952 20.16 53.4752 20.04C53.3952 19.92 53.3952 19.68 53.4752 19.32L54.0752 16.2C54.1552 15.6 54.5352 15.3 55.2152 15.3ZM65.7752 5.76C65.7752 7 65.3152 8.06 64.3952 8.94C63.5152 9.78 62.4352 10.2 61.1552 10.2C59.8752 10.2 58.8752 9.82 58.1552 9.06C57.4352 8.3 57.0752 7.32 57.0752 6.12C57.0752 4.88 57.5352 3.82 58.4552 2.94C59.4152 2.06 60.5152 1.62 61.7552 1.62C62.9952 1.62 63.9752 2 64.6952 2.76C65.4152 3.52 65.7752 4.52 65.7752 5.76ZM64.3291 58.8C63.7691 58.8 63.4891 58.64 63.4891 58.32C63.4891 58.2 63.5091 58.06 63.5491 57.9L70.1491 20.1H67.5691C67.1691 20.14 66.9091 20.1 66.7891 19.98C66.7091 19.86 66.7091 19.62 66.7891 19.26L67.3291 16.2C67.4091 15.6 67.7891 15.3 68.4691 15.3H76.1491C76.5491 15.3 76.7891 15.36 76.8691 15.48C76.9891 15.6 77.0091 15.84 76.9291 16.2L76.3291 19.44C78.8891 16.24 82.2491 14.64 86.4091 14.64C89.6891 14.64 92.2091 15.64 93.9691 17.64C95.7291 19.64 96.6091 22.4 96.6091 25.92C96.6091 31.8 95.2491 36.58 92.5291 40.26C89.8491 43.9 86.0291 45.72 81.0691 45.72C79.3891 45.72 77.7891 45.44 76.2691 44.88C74.7891 44.28 73.6691 43.64 72.9091 42.96L70.2691 57.9C70.2291 58.26 70.1291 58.5 69.9691 58.62C69.8091 58.74 69.5291 58.8 69.1291 58.8H64.3291ZM83.6491 20.28C81.8891 20.28 80.2291 20.84 78.6691 21.96C77.1091 23.04 76.1491 24.58 75.7891 26.58L73.8091 37.44C75.9291 39.56 78.2091 40.62 80.6491 40.62C82.3291 40.62 83.7691 40.24 84.9691 39.48C86.2091 38.68 87.1491 37.6 87.7891 36.24C88.9891 33.64 89.5891 30.56 89.5891 27C89.5891 22.52 87.6091 20.28 83.6491 20.28ZM107.17 15.48C107.17 12.16 108.49 9.3 111.13 6.9C113.81 4.46 117.57 3.24 122.41 3.24C125.49 3.24 128.55 3.68 131.59 4.56C132.11 4.72 132.37 5 132.37 5.4C132.37 5.52 132.35 5.64 132.31 5.76L130.87 13.98C130.79 14.58 130.41 14.88 129.73 14.88H126.49C126.09 14.88 125.85 14.82 125.77 14.7C125.69 14.58 125.69 14.34 125.77 13.98L126.73 9.9C125.17 8.94 123.25 8.46 120.97 8.46C118.69 8.46 116.89 8.96 115.57 9.96C114.29 10.96 113.65 12.3 113.65 13.98C113.65 14.94 113.77 15.64 114.01 16.08C114.29 16.52 114.49 16.86 114.61 17.1C114.73 17.34 114.97 17.62 115.33 17.94C115.73 18.26 116.01 18.5 116.17 18.66C116.33 18.78 116.67 19 117.19 19.32C117.75 19.6 118.11 19.78 118.27 19.86C119.63 20.54 120.63 21.06 121.27 21.42C121.95 21.74 122.57 22.08 123.13 22.44C123.73 22.76 124.49 23.28 125.41 24C126.37 24.72 127.11 25.44 127.63 26.16C128.95 27.92 129.61 30.02 129.61 32.46C129.61 36.54 128.15 39.78 125.23 42.18C122.35 44.54 118.71 45.72 114.31 45.72C109.91 45.72 106.17 45.24 103.09 44.28C102.57 44.12 102.31 43.84 102.31 43.44C102.31 43.32 102.33 43.2 102.37 43.08L103.93 33.54C104.01 33.18 104.11 32.94 104.23 32.82C104.39 32.7 104.67 32.64 105.07 32.64H108.31C108.71 32.64 108.95 32.7 109.03 32.82C109.15 32.94 109.17 33.18 109.09 33.54L107.83 39.06C109.35 40.06 111.49 40.56 114.25 40.56C120.17 40.56 123.13 38.36 123.13 33.96C123.13 31.92 122.37 30.32 120.85 29.16C119.49 28.16 117.95 27.26 116.23 26.46C114.51 25.66 113.29 25.06 112.57 24.66C111.89 24.26 111.03 23.64 109.99 22.8C108.11 21.24 107.17 18.8 107.17 15.48ZM129.286 58.8C128.726 58.8 128.446 58.64 128.446 58.32C128.446 58.2 128.466 58.06 128.506 57.9L135.106 20.1H132.526C132.126 20.14 131.866 20.1 131.746 19.98C131.666 19.86 131.666 19.62 131.746 19.26L132.286 16.2C132.366 15.6 132.746 15.3 133.426 15.3H141.106C141.506 15.3 141.746 15.36 141.826 15.48C141.946 15.6 141.966 15.84 141.886 16.2L141.286 19.44C143.846 16.24 147.206 14.64 151.366 14.64C154.646 14.64 157.166 15.64 158.926 17.64C160.686 19.64 161.566 22.4 161.566 25.92C161.566 31.8 160.206 36.58 157.486 40.26C154.806 43.9 150.986 45.72 146.026 45.72C144.346 45.72 142.746 45.44 141.226 44.88C139.746 44.28 138.626 43.64 137.866 42.96L135.226 57.9C135.186 58.26 135.086 58.5 134.926 58.62C134.766 58.74 134.486 58.8 134.086 58.8H129.286ZM148.606 20.28C146.846 20.28 145.186 20.84 143.626 21.96C142.066 23.04 141.106 24.58 140.746 26.58L138.766 37.44C140.886 39.56 143.166 40.62 145.606 40.62C147.286 40.62 148.726 40.24 149.926 39.48C151.166 38.68 152.106 37.6 152.746 36.24C153.946 33.64 154.546 30.56 154.546 27C154.546 22.52 152.566 20.28 148.606 20.28ZM175.295 0.239997C175.855 0.239997 176.135 0.399997 176.135 0.719998C176.135 0.839999 176.115 0.979999 176.075 1.14L169.295 39.06C169.255 39.3 169.235 39.54 169.235 39.78C169.235 40.54 169.595 40.92 170.315 40.92C170.795 40.92 171.355 40.78 171.995 40.5C172.675 40.22 173.135 40.34 173.375 40.86L173.855 41.82C174.135 42.34 174.035 42.8 173.555 43.2C171.395 44.92 169.215 45.78 167.015 45.78C163.935 45.78 162.395 44.4 162.395 41.64C162.395 41.16 162.435 40.64 162.515 40.08L168.635 5.04H166.055C165.655 5.08 165.395 5.04 165.275 4.92C165.195 4.8 165.195 4.56 165.275 4.2L165.815 1.14C165.855 0.779999 165.955 0.539999 166.115 0.419998C166.275 0.299997 166.555 0.239997 166.955 0.239997H175.295ZM177.336 15.3H185.676C186.076 15.3 186.316 15.36 186.396 15.48C186.516 15.6 186.536 15.84 186.456 16.2L182.376 39.06C182.336 39.34 182.316 39.58 182.316 39.78C182.316 40.54 182.656 40.92 183.336 40.92C183.816 40.92 184.376 40.78 185.016 40.5C185.696 40.22 186.156 40.34 186.396 40.86L186.876 41.82C187.156 42.34 187.056 42.8 186.576 43.2C184.416 44.92 182.236 45.78 180.036 45.78C176.956 45.78 175.416 44.4 175.416 41.64C175.416 41.16 175.456 40.64 175.536 40.08L178.956 20.16H176.376C175.976 20.2 175.716 20.16 175.596 20.04C175.516 19.92 175.516 19.68 175.596 19.32L176.196 16.2C176.276 15.6 176.656 15.3 177.336 15.3ZM187.896 5.76C187.896 7 187.436 8.06 186.516 8.94C185.636 9.78 184.556 10.2 183.276 10.2C181.996 10.2 180.996 9.82 180.276 9.06C179.556 8.3 179.196 7.32 179.196 6.12C179.196 4.88 179.656 3.82 180.576 2.94C181.536 2.06 182.636 1.62 183.876 1.62C185.116 1.62 186.096 2 186.816 2.76C187.536 3.52 187.896 4.52 187.896 5.76ZM206.25 15.3C206.81 15.3 207.09 15.46 207.09 15.78C207.09 15.9 207.07 16.04 207.03 16.2L206.49 19.38C206.41 19.74 206.29 19.98 206.13 20.1C206.01 20.22 205.75 20.26 205.35 20.22H199.35L196.83 34.32C196.59 35.68 196.47 36.88 196.47 37.92C196.47 38.92 196.67 39.68 197.07 40.2C197.51 40.68 198.31 40.92 199.47 40.92C200.63 40.92 201.77 40.7 202.89 40.26C203.45 40.06 203.85 40.24 204.09 40.8L204.63 42.84C204.83 43.44 204.65 43.86 204.09 44.1C201.69 45.18 199.17 45.72 196.53 45.72C193.93 45.72 192.09 45.18 191.01 44.1C189.97 43.02 189.45 41.52 189.45 39.6C189.45 38.48 189.65 36.84 190.05 34.68L192.69 20.22H189.33C188.77 20.26 188.49 20.12 188.49 19.8C188.49 19.68 188.51 19.54 188.55 19.38L189.03 16.2C189.11 15.84 189.21 15.6 189.33 15.48C189.49 15.36 189.77 15.3 190.17 15.3H193.53L194.91 7.2C194.99 6.84 195.09 6.6 195.21 6.48C195.37 6.36 195.65 6.3 196.05 6.3H200.85C201.25 6.3 201.49 6.36 201.57 6.48C201.69 6.6 201.71 6.84 201.63 7.2L200.25 15.3H206.25Z" fill="#6DA5F8"/>
</svg>
